<svg xmlns="http://www.w3.org/2000/svg" version="1.1" xmlns:xlink="http://www.w3.org/1999/xlink" xmlns:svgjs="http://svgjs.dev/svgjs" width="100%" height="100%" viewBox="0 0 1000 600"><rect width="1000" height="600" x="0" y="0" fill="#fff748"/><g><circle r="166.66666666666666" cx="436.4069620768229" cy="458.62907529889844" fill="#3c1a5b" transform="matrix(0.4634089244092076,0,0,0.46340892440920767,0,87.46720225901319)"/><path d="M368.21145622439275 533.6290725978042L368.21145622439275 533.6290725978042L314.678738112452 533.6290725978042L314.678738112452 383.6290716789691L368.21145622439275 383.6290716789691Q404.8533673280103 383.6290716789691 416.7762899221208 412.65356001412715L416.7762899221208 412.65356001412715Q423.7313281020186 429.3637166801154 423.7313281020186 456.4612680303666L423.7313281020186 456.4612680303666Q423.7313281020186 513.0349335716132 395.54987469775733 527.7880448623057L395.54987469775733 527.7880448623057Q384.25922830181935 533.6290725978042 368.21145622439275 533.6290725978042ZM406.599653970582 456.4612680303666L406.599653970582 456.4612680303666Q406.599653970582 413.3159446026888 387.3001757311253 402.6876827953125L387.3001757311253 402.6876827953125Q379.5021026203308 398.3520745792723 368.21145622439275 398.3520745792723L368.21145622439275 398.3520745792723L331.3587863880511 398.3520745792723L331.3587863880511 518.875961307112L368.21145622439275 518.875961307112Q406.599653970582 518.875961307112 406.599653970582 456.4612680303666ZM454.5021030797484 533.6290725978042L454.5021030797484 383.6290716789691L508.907964512975 383.6290716789691Q531.2483901817377 383.6290716789691 542.418603016119 392.84223913805454Q553.5587074601112 402.05540659713995 553.5587074601112 421.776402302045L553.5587074601112 421.776402302045Q553.5587074601112 435.86712900417564 548.681148217066 443.78563567652685Q543.8035889740207 451.6740339584889 534.2893376110437 456.2505092976424L534.2893376110437 456.2505092976424Q558.1351827992648 464.4700998738853 558.1351827992648 491.56765122413657L558.1351827992648 491.56765122413657Q558.1351827992648 514.1188356256234 546.2122602051543 523.8739541117138Q534.2893376110437 533.6290725978042 511.7381532095568 533.6290725978042L511.7381532095568 533.6290725978042L454.5021030797484 533.6290725978042ZM509.99186656698504 464.6808586066095L509.99186656698504 464.6808586066095L471.18215135534746 464.6808586066095L471.18215135534746 518.875961307112L511.07576862099506 518.875961307112Q525.8288799116874 518.875961307112 533.5065194609253 512.7037412773325Q541.2142674005522 506.53152124755303 541.2142674005522 490.935375025964L541.2142674005522 490.935375025964Q541.2142674005522 482.68567605933197 538.0829948000787 477.05540705655756Q534.9216138092161 471.4251380537831 529.7128622718901 469.01646682264965L529.7128622718901 469.01646682264965Q520.198610908913 464.6808586066095 509.99186656698504 464.6808586066095ZM508.27568831480244 398.3520745792723L508.27568831480244 398.3520745792723L471.18215135534746 398.3520745792723L471.18215135534746 450.1686144390305L509.78110783426087 450.1686144390305Q523.6610758036674 450.1686144390305 530.0440545661709 443.5447685534135Q536.4571417190637 436.9510310581857 536.4571417190637 423.61301411578427Q536.4571417190637 410.27499717338287 529.6225371007226 404.3135358763276Q522.7879324823814 398.3520745792723 508.27568831480244 398.3520745792723Z " fill="#fff748" transform="matrix(0.4634089244092076,0,0,0.46340892440920767,0,87.46720225901319)"/><path d="M737.2844895392943 531.5687830330385L737.2844895392943 531.5687830330385L686.4069638033695 531.5687830330385L686.4069638033695 389.008696859598L737.2844895392943 389.008696859598Q772.1089826892495 389.008696859598 783.4405351028751 416.59358707862583L783.4405351028751 416.59358707862583Q790.0506073441566 432.47492947651006 790.0506073441566 458.2284576892954L790.0506073441566 458.2284576892954Q790.0506073441566 511.9961015913215 763.2669380028599 526.0174669516157L763.2669380028599 526.0174669516157Q752.5363012475327 531.5687830330385 737.2844895392943 531.5687830330385ZM773.7686545074068 458.2284576892954L773.7686545074068 458.2284576892954Q773.7686545074068 417.22311776827166 755.4264194136342 407.1220117025903L755.4264194136342 407.1220117025903Q748.0151262946215 403.0014471885447 737.2844895392943 403.0014471885447L737.2844895392943 403.0014471885447L702.2596911699063 403.0014471885447L702.2596911699063 517.5474176727441L737.2844895392943 517.5474176727441Q773.7686545074068 517.5474176727441 773.7686545074068 458.2284576892954ZM886.6549531734489 518.8064790520359L886.6549531734489 518.8064790520359L892.6354947250846 518.17694836239L893.0647201952977 530.3383366850942Q869.571779458968 533.6290652900611 852.8892161833527 533.6290652900611L852.8892161833527 533.6290652900611Q830.6267217949672 533.6290652900611 821.3554516383645 520.7523011836686Q812.0841814817618 507.8755370772759 812.0841814817618 480.6912572971136L812.0841814817618 480.6912572971136Q812.0841814817618 426.4943879248744 855.1498036598083 426.4943879248744L855.1498036598083 426.4943879248744Q875.9529314494694 426.4943879248744 886.2543427345834 438.14070568332284Q896.5557540196976 449.7870234417713 896.5557540196976 474.71071574547796L896.5557540196976 474.71071574547796L895.725918110619 486.44287859796907L827.7366036288657 486.44287859796907Q827.7366036288657 503.55466734379746 833.9174503999342 511.7957963718888Q840.0982971710027 520.0369253999801 855.4645690046312 520.0369253999801Q870.8022258069122 520.0369253999801 886.6549531734489 518.8064790520359ZM827.5362984094329 474.0811850558321L881.1036370920264 474.0811850558321Q881.1036370920264 455.1380343037611 875.037250446348 447.2975157145354Q868.9422487693222 439.48561215665717 855.2356487538509 439.48561215665717Q841.5576637697272 439.48561215665717 834.6328261836227 447.7267411847485Q827.7366036288657 455.9678702128398 827.5362984094329 474.0811850558321L827.5362984094329 474.0811850558321ZM953.0132108683924 440.2868330343883L953.0132108683924 440.2868330343883Q930.5504112605742 440.2868330343883 930.5504112605742 455.9678702128398L930.5504112605742 455.9678702128398Q930.5504112605742 463.1788581124197 935.7011169031312 466.15482137256373Q940.8518225456883 469.13078463270784 959.1940576394609 472.3356681436322Q977.5362927332335 475.5405516545566 985.1478910716789 481.292172955412Q992.7594894101244 487.0724092876149 992.7594894101244 502.92513665415163Q992.7594894101244 518.8064790520359 982.5725382504004 526.2177721710486Q972.3855870906765 533.6290652900611 952.8129056489596 533.6290652900611L952.8129056489596 533.6290652900611Q940.0219866366097 533.6290652900611 922.7098926713484 530.7389471239597L922.7098926713484 530.7389471239597L916.5290459002799 529.7088059954483L917.3588818093585 516.3169713248Q940.8518225456883 519.8366201805472 952.8129056489596 519.8366201805472Q964.7453737208834 519.8366201805472 971.0406806173421 516.0022059799771Q977.3073724824533 512.1964068107543 977.3073724824533 503.2399019989746Q977.3073724824533 494.2833971871948 971.9563616204633 491.0785136762704Q966.6053507584736 487.9022451966935 948.4634208841337 485.0121270305921Q930.3501060411413 482.1220088644906 922.7098926713484 476.570692783068Q915.0982943329029 470.99076167029784 915.0982943329029 455.9678702128398Q915.0982943329029 440.91636372403417 925.71447096284 433.7053758244543Q936.330647592777 426.4943879248744 952.1833749593138 426.4943879248744L952.1833749593138 426.4943879248744Q964.7453737208834 426.4943879248744 983.7171395043019 429.38450609097583L983.7171395043019 429.38450609097583L989.4687608051573 430.4146472194873L989.0681503662918 443.60617667070284Q966.2047403196079 440.2868330343883 953.0132108683924 440.2868330343883ZM1089.1921450513314 459.65920925667234L1089.1921450513314 459.65920925667234L1089.1921450513314 512.396712030187Q1089.8216757409773 520.0369253999801 1101.1532281546029 521.467676967357L1101.1532281546029 521.467676967357L1100.523697464957 533.6290652900611Q1084.2417446282072 533.6290652900611 1076.000615600116 525.3879362619699L1076.000615600116 525.3879362619699Q1057.4580752869106 533.6290652900611 1038.9155349737052 533.6290652900611L1038.9155349737052 533.6290652900611Q1024.6938643939782 533.6290652900611 1017.2825712749654 525.5882414814027Q1009.8712781559528 517.5474176727441 1009.8712781559528 502.5245262152861Q1009.8712781559528 487.47301972648046 1017.4828764943982 480.37649195229073Q1025.1230898641911 473.25134914675345 1041.405042700941 471.62029235994373L1041.405042700941 471.62029235994373L1073.7400281236603 468.5298689744095L1073.7400281236603 459.65920925667234Q1073.7400281236603 449.15749275212545 1069.2188531707493 444.6363177992143Q1064.6690631864903 440.0865278149555 1056.8571596286122 440.0865278149555L1056.8571596286122 440.0865278149555Q1040.3749015724297 440.0865278149555 1022.6335821369553 442.14681007197834L1022.6335821369553 442.14681007197834L1016.2524301464541 442.7763407616242L1015.6515144881557 431.0155628777856Q1038.3146193154068 426.4943879248744 1055.8270185001008 426.4943879248744Q1073.3394176847949 426.4943879248744 1081.2657813680632 434.5352117335329Q1089.1921450513314 442.57603554219145 1089.1921450513314 459.65920925667234ZM1025.7240055224895 501.6946903062074L1025.7240055224895 501.6946903062074Q1025.7240055224895 520.6378410582784 1041.405042700941 520.6378410582784L1041.405042700941 520.6378410582784Q1055.3977930298877 520.6378410582784 1068.9899329199689 515.9163608859344L1068.9899329199689 515.9163608859344L1073.7400281236603 514.2566890677772L1073.7400281236603 480.26203182690057L1043.2364047071835 483.152149993002Q1033.9651345505808 483.9819859020807 1029.844570036535 488.50316085499185Q1025.7240055224895 493.0529508392506 1025.7240055224895 501.6946903062074ZM1122.3569663831295 531.5687830330385L1122.3569663831295 389.008696859598L1174.0643280281329 389.008696859598Q1195.2966812880068 389.008696859598 1205.912857917944 397.764896451945Q1216.529034547881 406.521096044292 1216.529034547881 425.2639415769302L1216.529034547881 425.2639415769302Q1216.529034547881 438.65577624757856 1211.8933994695797 446.1815294919814Q1207.2577643912782 453.6786677050366 1198.1867994541085 458.0281524698626L1198.1867994541085 458.0281524698626Q1220.8499042813594 465.8400560277408 1220.8499042813594 491.5935842405261L1220.8499042813594 491.5935842405261Q1220.8499042813594 513.0262427198329 1209.518351867734 522.2975128764356Q1198.1867994541085 531.5687830330385 1176.7541409748014 531.5687830330385L1176.7541409748014 531.5687830330385L1122.3569663831295 531.5687830330385ZM1175.0944691566442 466.04036124717356L1175.0944691566442 466.04036124717356L1138.2383087810138 466.04036124717356L1138.2383087810138 517.5474176727441L1176.1246102851555 517.5474176727441Q1190.1459756454499 517.5474176727441 1197.4714236704199 511.68133624649863Q1204.7682566640424 505.8152548202531 1204.7682566640424 490.9926685822278L1204.7682566640424 490.9926685822278Q1204.7682566640424 483.152149993002 1201.7922934038984 477.8011391310122Q1198.7877151124067 472.45012826902234 1193.86592972063 470.16092576121923L1193.86592972063 470.16092576121923Q1184.79496478346 466.04036124717356 1175.0944691566442 466.04036124717356ZM1173.4634123698345 403.0014471885447L1173.4634123698345 403.0014471885447L1138.2383087810138 403.0014471885447L1138.2383087810138 452.2479161376597L1174.8941639372115 452.2479161376597Q1188.085693388427 452.2479161376597 1194.1520800341054 445.95260924120106Q1200.2470817111312 439.68591737608995 1200.2470817111312 427.0094584891301Q1200.2470817111312 414.3329996021702 1193.7514695952398 408.66722339535744Q1187.2558574793484 403.0014471885447 1173.4634123698345 403.0014471885447ZM1262.0555494218158 531.5687830330385L1246.6034324941447 531.5687830330385L1246.6034324941447 428.5546701818972L1262.0555494218158 428.5546701818972L1262.0555494218158 531.5687830330385ZM1262.0555494218158 405.26203466500033L1246.6034324941447 405.26203466500033L1246.6034324941447 387.34902504144077L1262.0555494218158 387.34902504144077L1262.0555494218158 405.26203466500033ZM1307.1814538568854 447.9270464041812L1307.1814538568854 531.5687830330385L1291.729336929214 531.5687830330385L1291.729336929214 428.5546701818972L1306.952533606105 428.5546701818972L1306.952533606105 435.7656580814771Q1323.6637119130678 426.4943879248744 1338.8869085899587 426.4943879248744L1338.8869085899587 426.4943879248744Q1359.489731160187 426.4943879248744 1366.6148739657242 437.62563511906717Q1373.7114017399138 448.7568823132599 1373.7114017399138 477.17160844136635L1373.7114017399138 477.17160844136635L1373.7114017399138 531.5687830330385L1358.4595900316754 531.5687830330385L1358.4595900316754 477.6008339115794Q1358.4595900316754 456.16817543227256 1354.253180423587 448.24181174900417Q1350.0181557841513 440.2868330343883 1336.2257106746376 440.2868330343883L1336.2257106746376 440.2868330343883Q1329.615638433356 440.2868330343883 1322.3188054397335 442.2612701973685Q1314.9933574147633 444.20709232900117 1311.0730981201507 446.0670693665912L1311.0730981201507 446.0670693665912L1307.1814538568854 447.9270464041812ZM1475.0944578042454 459.65920925667234L1475.0944578042454 459.65920925667234L1475.0944578042454 512.396712030187Q1475.6953734625436 520.0369253999801 1487.0269258761693 521.467676967357L1487.0269258761693 521.467676967357L1486.4260102178707 533.6290652900611Q1470.144057381121 533.6290652900611 1461.9029283530297 525.3879362619699L1461.9029283530297 525.3879362619699Q1443.3603880398243 533.6290652900611 1424.817847726619 533.6290652900611L1424.817847726619 533.6290652900611Q1410.596177146892 533.6290652900611 1403.1848840278792 525.5882414814027Q1395.7735909088667 517.5474176727441 1395.7735909088667 502.5245262152861Q1395.7735909088667 487.47301972648046 1403.385189247312 480.37649195229073Q1410.9967875857576 473.25134914675345 1427.278740422507 471.62029235994373L1427.278740422507 471.62029235994373L1459.642340876574 468.5298689744095L1459.642340876574 459.65920925667234Q1459.642340876574 449.15749275212545 1455.0925508923153 444.6363177992143Q1450.571375939404 440.0865278149555 1442.7308573501784 440.0865278149555L1442.7308573501784 440.0865278149555Q1426.2485992939958 440.0865278149555 1408.535894889869 442.14681007197834L1408.535894889869 442.14681007197834L1402.1547428993679 442.7763407616242L1401.525212209722 431.0155628777856Q1424.188317036973 426.4943879248744 1441.700716221667 426.4943879248744Q1459.213115406361 426.4943879248744 1467.1394790896295 434.5352117335329Q1475.0944578042454 442.57603554219145 1475.0944578042454 459.65920925667234ZM1411.6263182754035 501.6946903062074L1411.6263182754035 501.6946903062074Q1411.6263182754035 520.6378410582784 1427.278740422507 520.6378410582784L1427.278740422507 520.6378410582784Q1441.3001057828017 520.6378410582784 1454.8922456728826 515.9163608859344L1454.8922456728826 515.9163608859344L1459.642340876574 514.2566890677772L1459.642340876574 480.26203182690057L1429.1387174600975 483.152149993002Q1419.8674473034946 483.9819859020807 1415.7468827894488 488.50316085499185Q1411.6263182754035 493.0529508392506 1411.6263182754035 501.6946903062074ZM1578.3088758748193 459.65920925667234L1578.3088758748193 459.65920925667234L1578.3088758748193 512.396712030187Q1578.9097915331174 520.0369253999801 1590.2413439467432 521.467676967357L1590.2413439467432 521.467676967357L1589.6404282884448 533.6290652900611Q1573.3584754516949 533.6290652900611 1565.1173464236037 525.3879362619699L1565.1173464236037 525.3879362619699Q1546.5748061103984 533.6290652900611 1528.0322657971928 533.6290652900611L1528.0322657971928 533.6290652900611Q1513.8105952174658 533.6290652900611 1506.3993020984533 525.5882414814027Q1498.9880089794403 517.5474176727441 1498.9880089794403 502.5245262152861Q1498.9880089794403 487.47301972648046 1506.599607317886 480.37649195229073Q1514.239820687679 473.25134914675345 1530.4931584930812 471.62029235994373L1530.4931584930812 471.62029235994373L1562.8567589471481 468.5298689744095L1562.8567589471481 459.65920925667234Q1562.8567589471481 449.15749275212545 1558.3069689628894 444.6363177992143Q1553.7857940099782 440.0865278149555 1545.9452754207525 440.0865278149555L1545.9452754207525 440.0865278149555Q1529.4630173645699 440.0865278149555 1511.7503129604431 442.14681007197834L1511.7503129604431 442.14681007197834L1505.369160969942 442.7763407616242L1504.739630280296 431.0155628777856Q1527.402735107547 426.4943879248744 1544.915134292241 426.4943879248744Q1562.427533476935 426.4943879248744 1570.3825121915509 434.5352117335329Q1578.3088758748193 442.57603554219145 1578.3088758748193 459.65920925667234ZM1514.8407363459773 501.6946903062074L1514.8407363459773 501.6946903062074Q1514.8407363459773 520.6378410582784 1530.4931584930812 520.6378410582784L1530.4931584930812 520.6378410582784Q1544.5145238533753 520.6378410582784 1558.1066637434567 515.9163608859344L1558.1066637434567 515.9163608859344L1562.8567589471481 514.2566890677772L1562.8567589471481 480.26203182690057L1532.3531355306714 483.152149993002Q1523.0818653740687 483.9819859020807 1518.961300860023 488.50316085499185Q1514.8407363459773 493.0529508392506 1514.8407363459773 501.6946903062074ZM1624.2360011876196 447.9270464041812L1624.2360011876196 531.5687830330385L1608.7838842599483 531.5687830330385L1608.7838842599483 428.5546701818972L1624.035695968187 428.5546701818972L1624.035695968187 435.7656580814771Q1640.7182592438023 426.4943879248744 1655.9700709520405 426.4943879248744L1655.9700709520405 426.4943879248744Q1676.572893522269 426.4943879248744 1683.698036327806 437.62563511906717Q1690.7945641019958 448.7568823132599 1690.7945641019958 477.17160844136635L1690.7945641019958 477.17160844136635L1690.7945641019958 531.5687830330385L1675.5427523937576 531.5687830330385L1675.5427523937576 477.6008339115794Q1675.5427523937576 456.16817543227256 1671.336342785669 448.24181174900417Q1667.1013181462333 440.2868330343883 1653.3088730367197 440.2868330343883L1653.3088730367197 440.2868330343883Q1646.698800795438 440.2868330343883 1639.4019678018155 442.2612701973685Q1632.0765197768453 444.20709232900117 1628.1562604822327 446.0670693665912L1628.1562604822327 446.0670693665912L1624.2360011876196 447.9270464041812ZM1735.2909378474194 531.5687830330385L1718.4080693523713 531.5687830330385L1718.4080693523713 508.0758422967087L1735.2909378474194 508.0758422967087L1735.2909378474194 531.5687830330385ZM1779.3867011539771 531.5687830330385L1763.9345842263062 531.5687830330385L1763.9345842263062 428.5546701818972L1779.3867011539771 428.5546701818972L1779.3867011539771 531.5687830330385ZM1779.3867011539771 405.26203466500033L1763.9345842263062 405.26203466500033L1763.9345842263062 387.34902504144077L1779.3867011539771 387.34902504144077L1779.3867011539771 405.26203466500033ZM1872.9292386290829 383.62907096626066L1888.1810503373215 383.62907096626066L1888.1810503373215 531.5687830330385L1872.9292386290829 531.5687830330385L1872.9292386290829 524.5581003528912Q1857.0478962311988 533.6290652900611 1841.5957793035275 533.6290652900611L1841.5957793035275 533.6290652900611Q1833.3546502754364 533.6290652900611 1827.1738035043675 531.5687830330385Q1820.992956733299 529.5085007760156 1815.6419458713096 524.1574899140257L1815.6419458713096 524.1574899140257Q1804.5106986771168 513.0262427198329 1804.5106986771168 483.03768986761185Q1804.5106986771168 453.07775204673834 1814.5259596487556 439.7717624701326Q1824.5126055890466 426.4943879248744 1847.5763208551632 426.4943879248744L1847.5763208551632 426.4943879248744Q1859.5374039584347 426.4943879248744 1872.9292386290829 429.18420087154306L1872.9292386290829 429.18420087154306L1872.9292386290829 383.62907096626066ZM1827.603028974581 513.0262427198329Q1830.8937575795478 516.9465020144457 1834.6137116547281 518.3772535818227Q1838.3050506985608 519.8366201805472 1844.171132124806 519.8366201805472Q1850.065828582399 519.8366201805472 1857.3626615760215 517.8621830175671Q1864.6881096009918 515.9163608859344 1868.808674115037 514.0563838483445L1868.808674115037 514.0563838483445L1872.9292386290829 512.1964068107543L1872.9292386290829 442.3471152914111Q1859.7377091778674 439.8862225955227 1848.4061567642418 439.8862225955227L1848.4061567642418 439.8862225955227Q1832.7537346171378 439.8862225955227 1826.5728878460693 449.8728685358139Q1820.3920410750009 459.8595144761051 1820.3920410750009 480.89156251654646L1820.3920410750009 480.89156251654646Q1820.3920410750009 504.7851136917417 1827.603028974581 513.0262427198329L1827.603028974581 513.0262427198329Z " fill="#3c1a5b" transform="matrix(0.4634089244092076,0,0,0.46340892440920767,0,87.46720225901319)"/></g></svg>